<svg width="181" height="34" viewBox="0 0 181 34" fill="none" xmlns="http://www.w3.org/2000/svg">
<path d="M16.5345 33.864C13.2705 33.864 10.3905 33.192 7.8945 31.848C5.4305 30.472 3.4945 28.536 2.0865 26.04C0.7105 23.512 0.0225001 20.536 0.0225001 17.112C0.0225001 13.784 0.7105 10.872 2.0865 8.376C3.4625 5.88 5.4465 3.944 8.0385 2.568C10.6625 1.16 13.8305 0.455998 17.5425 0.455998C19.2385 0.455998 20.8065 0.647999 22.2465 1.032C23.7185 1.416 25.1105 1.976 26.4225 2.712L26.6145 9.432H26.1345L23.4465 4.44C23.0305 3.64 22.6465 3.064 22.2945 2.712C21.9425 2.36 21.4945 2.088 20.9505 1.896C20.4385 1.736 19.9585 1.624 19.5105 1.56C19.0945 1.464 18.5345 1.416 17.8305 1.416C15.8465 1.416 14.0865 1.944 12.5505 3C11.0465 4.056 9.8785 5.736 9.0465 8.04C8.2145 10.344 7.7985 13.368 7.7985 17.112C7.7985 20.824 8.1825 23.848 8.9505 26.184C9.7505 28.52 10.8705 30.232 12.3105 31.32C13.7505 32.376 15.4145 32.904 17.3025 32.904C17.5905 32.904 17.8625 32.888 18.1185 32.856C18.4065 32.792 18.6785 32.728 18.9345 32.664C19.5425 32.568 19.9425 32.312 20.1345 31.896C20.3265 31.48 20.4225 30.984 20.4225 30.408V20.904C20.4225 19.656 19.7825 18.888 18.5025 18.6L16.2945 18.024V17.544H29.8305V18.024L29.1585 18.216C27.9425 18.6 27.3345 19.4 27.3345 20.616V31.032C25.6705 31.96 23.9745 32.664 22.2465 33.144C20.5505 33.624 18.6465 33.864 16.5345 33.864ZM47.1113 33.864C45.1593 33.864 43.2713 33.512 41.4473 32.808C39.6553 32.104 38.0393 31.064 36.5993 29.688C35.1913 28.28 34.0713 26.536 33.2393 24.456C32.4073 22.376 31.9913 19.944 31.9913 17.16C31.9913 14.408 32.4073 11.992 33.2393 9.912C34.0713 7.832 35.2073 6.104 36.6473 4.728C38.0873 3.32 39.7033 2.264 41.4953 1.56C43.3193 0.823998 45.1913 0.455998 47.1113 0.455998C49.0633 0.455998 50.9353 0.807999 52.7273 1.512C54.5513 2.184 56.1673 3.224 57.5753 4.632C59.0153 6.008 60.1513 7.752 60.9833 9.864C61.8153 11.944 62.2313 14.376 62.2313 17.16C62.2313 19.88 61.8153 22.296 60.9833 24.408C60.1513 26.488 59.0153 28.232 57.5753 29.64C56.1673 31.016 54.5513 32.072 52.7273 32.808C50.9353 33.512 49.0633 33.864 47.1113 33.864ZM47.1113 32.856C48.8713 32.856 50.2953 32.392 51.3833 31.464C52.4713 30.504 53.2553 28.888 53.7353 26.616C54.2473 24.312 54.5033 21.16 54.5033 17.16C54.5033 13.128 54.2473 9.976 53.7353 7.704C53.2553 5.4 52.4713 3.784 51.3833 2.856C50.2953 1.896 48.8713 1.416 47.1113 1.416C45.3833 1.416 43.9753 1.896 42.8873 2.856C41.7993 3.784 40.9993 5.4 40.4873 7.704C40.0073 9.976 39.7673 13.128 39.7673 17.16C39.7673 21.16 40.0073 24.312 40.4873 26.616C40.9993 28.888 41.7993 30.504 42.8873 31.464C43.9753 32.392 45.3833 32.856 47.1113 32.856ZM80.0175 33.864C78.0655 33.864 76.1775 33.512 74.3535 32.808C72.5615 32.104 70.9455 31.064 69.5055 29.688C68.0975 28.28 66.9775 26.536 66.1455 24.456C65.3135 22.376 64.8975 19.944 64.8975 17.16C64.8975 14.408 65.3135 11.992 66.1455 9.912C66.9775 7.832 68.1135 6.104 69.5535 4.728C70.9935 3.32 72.6095 2.264 74.4015 1.56C76.2255 0.823998 78.0975 0.455998 80.0175 0.455998C81.9695 0.455998 83.8415 0.807999 85.6335 1.512C87.4575 2.184 89.0735 3.224 90.4815 4.632C91.9215 6.008 93.0575 7.752 93.8895 9.864C94.7215 11.944 95.1375 14.376 95.1375 17.16C95.1375 19.88 94.7215 22.296 93.8895 24.408C93.0575 26.488 91.9215 28.232 90.4815 29.64C89.0735 31.016 87.4575 32.072 85.6335 32.808C83.8415 33.512 81.9695 33.864 80.0175 33.864ZM80.0175 32.856C81.7775 32.856 83.2015 32.392 84.2895 31.464C85.3775 30.504 86.1615 28.888 86.6415 26.616C87.1535 24.312 87.4095 21.16 87.4095 17.16C87.4095 13.128 87.1535 9.976 86.6415 7.704C86.1615 5.4 85.3775 3.784 84.2895 2.856C83.2015 1.896 81.7775 1.416 80.0175 1.416C78.2895 1.416 76.8815 1.896 75.7935 2.856C74.7055 3.784 73.9055 5.4 73.3935 7.704C72.9135 9.976 72.6735 13.128 72.6735 17.16C72.6735 21.16 72.9135 24.312 73.3935 26.616C73.9055 28.888 74.7055 30.504 75.7935 31.464C76.8815 32.392 78.2895 32.856 80.0175 32.856ZM96.3529 33V32.52L97.3609 32.136C98.3849 31.72 98.8969 30.904 98.8969 29.688V4.632C98.8969 3.352 98.3849 2.536 97.3609 2.184L96.3529 1.8V1.32H109.025C112.417 1.32 115.329 1.96 117.761 3.24C120.225 4.488 122.113 6.296 123.425 8.664C124.769 11 125.441 13.816 125.441 17.112C125.441 20.472 124.721 23.336 123.281 25.704C121.841 28.072 119.825 29.88 117.233 31.128C114.673 32.376 111.649 33 108.161 33H96.3529ZM106.097 32.04H108.161C110.465 32.04 112.321 31.592 113.729 30.696C115.137 29.768 116.161 28.232 116.801 26.088C117.473 23.912 117.809 20.936 117.809 17.16C117.809 13.384 117.473 10.424 116.801 8.28C116.161 6.104 115.153 4.568 113.777 3.672C112.401 2.744 110.593 2.28 108.353 2.28H106.097V32.04ZM126.913 33V32.424L143.569 2.28H134.449C133.393 2.28 132.529 2.52 131.857 3C131.217 3.48 130.641 4.184 130.129 5.112L127.921 9H127.441L127.777 1.32H151.249V1.896L134.593 32.04H145.057C146.113 32.04 146.945 31.8 147.553 31.32C148.193 30.808 148.769 30.088 149.281 29.16L151.345 25.32H151.825L151.489 33H126.913ZM160.545 33V32.52L161.985 32.136C163.105 31.816 163.665 31.016 163.665 29.736V20.616L155.745 4.488C155.457 3.848 155.185 3.368 154.929 3.048C154.705 2.728 154.353 2.456 153.873 2.232L153.009 1.8V1.32H165.873V1.8L165.009 2.136C164.305 2.424 163.921 2.824 163.857 3.336C163.793 3.816 163.921 4.424 164.241 5.16L169.905 17.736L176.241 4.68C176.497 4.168 176.593 3.64 176.529 3.096C176.497 2.552 176.161 2.2 175.521 2.04L174.849 1.8V1.32H180.609V1.8L179.697 2.136C179.089 2.36 178.641 2.68 178.353 3.096C178.065 3.48 177.777 3.976 177.489 4.584L170.913 18.408V29.736C170.913 30.376 171.025 30.904 171.249 31.32C171.505 31.704 171.937 31.976 172.545 32.136L174.033 32.52V33H160.545Z" fill="#23262E"/>
</svg>
